HIERARCHY
ROOT joint_0
{
	OFFSET 0.000000 0.000000 0.000000
	CHANNELS 6 Xposition Yposition Zposition Zrotation Yrotation Xrotation 
	JOINT joint_1
	{
		OFFSET 4.520508 -1.939880 86.268921
		CHANNELS 3 Zrotation Yrotation Xrotation
		JOINT joint_2
		{
			OFFSET -4.459717 -0.438538 78.934082
			CHANNELS 3 Zrotation Yrotation Xrotation
			JOINT joint_3
			{
				OFFSET -5.197754 -0.781128 78.796997
				CHANNELS 3 Zrotation Yrotation Xrotation
				JOINT joint_4
				{
					OFFSET 2.952026 -3.710571 109.812988
					CHANNELS 3 Zrotation Yrotation Xrotation
					JOINT joint_5
					{
						OFFSET 24.716797 -5.488037 87.903931
						CHANNELS 3 Zrotation Yrotation Xrotation
						End Site
						{
							OFFSET 0.000000 0.000000 0.000000
						}
					}
				}
				JOINT joint_6
				{
					OFFSET -3.154419 -25.484680 60.934937
					CHANNELS 3 Zrotation Yrotation Xrotation
					JOINT joint_7
					{
						OFFSET -28.997192 -144.472229 -32.671997
						CHANNELS 3 Zrotation Yrotation Xrotation
						JOINT joint_8
						{
							OFFSET 19.867676 -18.614380 -249.897949
							CHANNELS 3 Zrotation Yrotation Xrotation
							JOINT joint_9
							{
								OFFSET 5.281982 -13.816650 -264.993042
								CHANNELS 3 Zrotation Yrotation Xrotation
								End Site
								{
									OFFSET 0.000000 0.000000 0.000000
								}
							}
						}
					}
				}
				JOINT joint_10
				{
					OFFSET 6.494995 21.336792 62.257935
					CHANNELS 3 Zrotation Yrotation Xrotation
					JOINT joint_11
					{
						OFFSET 31.106567 145.200745 -27.007935
						CHANNELS 3 Zrotation Yrotation Xrotation
						JOINT joint_12
						{
							OFFSET 29.119141 24.684326 -248.460083
							CHANNELS 3 Zrotation Yrotation Xrotation
							JOINT joint_13
							{
								OFFSET 21.220093 31.248413 -262.703979
								CHANNELS 3 Zrotation Yrotation Xrotation
								End Site
								{
									OFFSET 0.000000 0.000000 0.000000
								}
							}
						}
					}
				}
			}
		}
	}
	JOINT joint_14
	{
		OFFSET -15.458496 -88.861694 -109.593018
		CHANNELS 3 Zrotation Yrotation Xrotation
		JOINT joint_15
		{
			OFFSET -6.193359 6.837952 -506.710999
			CHANNELS 3 Zrotation Yrotation Xrotation
			JOINT joint_16
			{
				OFFSET -35.096680 13.289795 -435.677025
				CHANNELS 3 Zrotation Yrotation Xrotation
				JOINT joint_17
				{
					OFFSET 158.491211 -33.916565 -71.771002
					CHANNELS 3 Zrotation Yrotation Xrotation
					End Site
					{
						OFFSET 0.000000 0.000000 0.000000
					}
				}
			}
		}
	}
	JOINT joint_18
	{
		OFFSET 23.116943 86.574158 -110.082031
		CHANNELS 3 Zrotation Yrotation Xrotation
		JOINT joint_19
		{
			OFFSET -6.125854 -0.283569 -506.757019
			CHANNELS 3 Zrotation Yrotation Xrotation
			JOINT joint_20
			{
				OFFSET -63.240234 11.589966 -432.537994
				CHANNELS 3 Zrotation Yrotation Xrotation
				JOINT joint_21
				{
					OFFSET 156.074219 -41.487305 -73.077999
					CHANNELS 3 Zrotation Yrotation Xrotation
					End Site
					{
						OFFSET 0.000000 0.000000 0.000000
					}
				}
			}
		}
	}
}
MOTION
Frames: 18
Frame Time: 0.016667
-434.766663 900.525635 1140.782959 7.444547 -0.354873 0.269269 -0.216875 0.313467 -0.964805 -0.150377 -0.068825 0.218112 -0.171608 0.059825 -0.127584 -0.174639 1.454874 0.924339 0.000000 0.000000 0.000000 -0.037854 -0.102288 -0.274597 0.312904 -0.580161 1.724871 -0.232084 2.968759 -1.875151 0.000000 0.000000 0.000000 0.294916 0.494999 -0.116047 0.141870 0.200951 1.119587 0.023910 0.083174 0.166724 0.000000 0.000000 0.000000 0.103646 0.665180 -0.359658 0.080728 -0.861961 -0.152044 0.104963 1.030348 0.268142 0.000000 0.000000 0.000000 0.552775 0.753228 -0.080362 0.548713 0.426914 0.450384 0.565363 -0.047226 0.252323 0.000000 0.000000 0.000000 
-434.829529 900.531616 1140.787964 7.447395 -0.354099 0.269623 -0.215838 0.324599 -0.957261 -0.149871 -0.070588 0.217808 -0.171074 0.061746 -0.128027 -0.173945 1.458835 0.922603 0.000000 0.000000 0.000000 -0.041822 -0.108529 -0.272076 0.313812 -0.587289 1.726319 -0.231218 2.953103 -1.883133 0.000000 0.000000 0.000000 0.294926 0.486021 -0.121431 0.140480 0.191525 1.115157 0.023131 0.078364 0.164463 0.000000 0.000000 0.000000 0.102871 0.661737 -0.359179 0.080013 -0.863936 -0.155315 0.104137 1.034831 0.268728 0.000000 0.000000 0.000000 0.552027 0.749052 -0.082718 0.547894 0.425596 0.452233 0.564840 -0.043099 0.253175 0.000000 0.000000 0.000000 
-434.896027 900.544312 1140.790039 7.448328 -0.354554 0.270281 -0.215859 0.334676 -0.949657 -0.150457 -0.073099 0.216957 -0.171480 0.064858 -0.126996 -0.172405 1.463609 0.918060 0.000000 0.000000 0.000000 -0.045221 -0.116394 -0.269714 0.314881 -0.595663 1.726215 -0.230751 2.942545 -1.893811 0.000000 0.000000 0.000000 0.296989 0.479163 -0.128167 0.139460 0.183245 1.112450 0.021972 0.072311 0.159432 0.000000 0.000000 0.000000 0.102738 0.660083 -0.360363 0.079859 -0.867304 -0.156653 0.104036 1.038431 0.269453 0.000000 0.000000 0.000000 0.551771 0.747895 -0.086448 0.547549 0.421113 0.455441 0.565033 -0.039369 0.254258 0.000000 0.000000 0.000000 
-434.968231 900.563416 1140.790039 7.447314 -0.356028 0.270600 -0.215889 0.345539 -0.941489 -0.150968 -0.075916 0.218263 -0.172135 0.066667 -0.128604 -0.170710 1.469757 0.913248 0.000000 0.000000 0.000000 -0.049954 -0.124686 -0.266166 0.315990 -0.604298 1.724920 -0.230454 2.934151 -1.906054 0.000000 0.000000 0.000000 0.299272 0.473763 -0.134341 0.138666 0.176473 1.110056 0.020619 0.065854 0.152635 0.000000 0.000000 0.000000 0.103200 0.659711 -0.361982 0.080252 -0.871866 -0.157183 0.104570 1.042361 0.270537 0.000000 0.000000 0.000000 0.551927 0.748892 -0.090674 0.547611 0.414415 0.459518 0.565781 -0.035438 0.255653 0.000000 0.000000 0.000000 
-435.045959 900.588074 1140.790039 7.445631 -0.357815 0.270511 -0.218009 0.357741 -0.930078 -0.153924 -0.079039 0.216924 -0.174910 0.069046 -0.128020 -0.169018 1.472845 0.907848 0.000000 0.000000 0.000000 -0.046921 -0.133616 -0.263916 0.316836 -0.611747 1.722255 -0.230099 2.925559 -1.916680 0.000000 0.000000 0.000000 0.309109 0.469163 -0.141871 0.137424 0.169455 1.104263 0.019686 0.061191 0.148273 0.000000 0.000000 0.000000 0.103854 0.658960 -0.363843 0.080842 -0.875614 -0.157066 0.105317 1.046293 0.271717 0.000000 0.000000 0.000000 0.552639 0.750649 -0.095037 0.548226 0.406437 0.463905 0.567123 -0.031609 0.257300 0.000000 0.000000 0.000000 
-435.124725 900.623657 1140.790039 7.442640 -0.359507 0.269548 -0.223142 0.368777 -0.911597 -0.160581 -0.080278 0.210575 -0.180792 0.071695 -0.123060 -0.167163 1.472429 0.901197 0.000000 0.000000 0.000000 -0.031513 -0.142097 -0.266338 0.317441 -0.616772 1.719250 -0.229512 2.914054 -1.926280 0.000000 0.000000 0.000000 0.329409 0.466447 -0.153691 0.135493 0.162412 1.093449 0.019495 0.059067 0.149163 0.000000 0.000000 0.000000 0.105119 0.657662 -0.365370 0.082065 -0.878758 -0.157182 0.106645 1.050698 0.273263 0.000000 0.000000 0.000000 0.554005 0.754236 -0.098772 0.549528 0.394770 0.467370 0.569063 -0.027064 0.259418 0.000000 0.000000 0.000000 
-435.209076 900.664734 1140.791016 7.438867 -0.361727 0.268342 -0.229080 0.381663 -0.890428 -0.168292 -0.082207 0.202891 -0.187596 0.074636 -0.117553 -0.166012 1.469251 0.896476 0.000000 0.000000 0.000000 -0.012127 -0.150646 -0.268815 0.317785 -0.620614 1.714718 -0.228869 2.902214 -1.934634 0.000000 0.000000 0.000000 0.353215 0.464267 -0.166575 0.133249 0.155569 1.079836 0.019705 0.058980 0.151891 0.000000 0.000000 0.000000 0.106673 0.656227 -0.367217 0.083582 -0.881057 -0.156887 0.108259 1.054917 0.274898 0.000000 0.000000 0.000000 0.555783 0.758875 -0.102603 0.551245 0.381734 0.470831 0.571415 -0.021545 0.261987 0.000000 0.000000 0.000000 
-435.305786 900.698608 1140.791016 7.435196 -0.362911 0.266446 -0.231498 0.397615 -0.872881 -0.172197 -0.085050 0.196687 -0.190729 0.077501 -0.112775 -0.165782 1.464305 0.894605 0.000000 0.000000 0.000000 -0.003358 -0.158833 -0.267565 0.317947 -0.625565 1.709475 -0.228284 2.892574 -1.939226 0.000000 0.000000 0.000000 0.368077 0.460200 -0.174845 0.130848 0.149962 1.063889 0.019526 0.056785 0.153036 0.000000 0.000000 0.000000 0.108080 0.652064 -0.368052 0.085014 -0.881776 -0.156401 0.109761 1.059581 0.276578 0.000000 0.000000 0.000000 0.557377 0.759161 -0.106217 0.552732 0.374089 0.476214 0.573723 -0.019298 0.263666 0.000000 0.000000 0.000000 
-435.427032 900.716003 1140.791016 7.432447 -0.361577 0.264465 -0.227262 0.419490 -0.863866 -0.168773 -0.090420 0.194007 -0.186896 0.081565 -0.110649 -0.168044 1.457231 0.900995 0.000000 0.000000 0.000000 -0.015573 -0.168060 -0.256555 0.317694 -0.633498 1.700502 -0.227735 2.885534 -1.937988 0.000000 0.000000 0.000000 0.364712 0.450417 -0.172665 0.127904 0.145322 1.042576 0.018766 0.051267 0.152093 0.000000 0.000000 0.000000 0.109144 0.642144 -0.368170 0.086223 -0.879340 -0.155608 0.110967 1.063954 0.278061 0.000000 0.000000 0.000000 0.558163 0.751138 -0.110130 0.553331 0.374933 0.484139 0.575391 -0.021153 0.263954 0.000000 0.000000 0.000000 
-435.560638 900.726196 1140.791016 7.430229 -0.358854 0.262075 -0.218796 0.442995 -0.859165 -0.160694 -0.095696 0.194307 -0.178783 0.085883 -0.111309 -0.171825 1.446978 0.912047 0.000000 0.000000 0.000000 -0.040992 -0.177013 -0.240281 0.317291 -0.642865 1.690588 -0.227303 2.881294 -1.933558 0.000000 0.000000 0.000000 0.349252 0.438097 -0.165189 0.124898 0.141910 1.019418 0.017721 0.044736 0.149193 0.000000 0.000000 0.000000 0.109936 0.629146 -0.367722 0.087222 -0.875257 -0.154452 0.111950 1.068551 0.279491 0.000000 0.000000 0.000000 0.558689 0.738399 -0.113941 0.553628 0.380910 0.493547 0.576879 -0.025031 0.263620 0.000000 0.000000 0.000000 
-435.677002 900.735046 1140.790039 7.425759 -0.358156 0.259684 -0.210571 0.462090 -0.856146 -0.152780 -0.101219 0.193880 -0.170701 0.090788 -0.110766 -0.175193 1.439464 0.922234 0.000000 0.000000 0.000000 -0.060454 -0.181561 -0.226417 0.317032 -0.648200 1.686691 -0.226956 2.878261 -1.928359 0.000000 0.000000 0.000000 0.336032 0.430691 -0.161855 0.123035 0.140636 1.004079 0.016616 0.038657 0.144871 0.000000 0.000000 0.000000 0.111351 0.619592 -0.366962 0.088798 -0.871967 -0.153647 0.113485 1.072982 0.281136 0.000000 0.000000 0.000000 0.560078 0.728256 -0.116738 0.554828 0.388509 0.501470 0.578974 -0.029673 0.263367 0.000000 0.000000 0.000000 
-435.762360 900.744873 1140.786011 7.418670 -0.361438 0.257064 -0.204416 0.472991 -0.855244 -0.146618 -0.102606 0.195957 -0.164771 0.092218 -0.112671 -0.177415 1.437830 0.929661 0.000000 0.000000 0.000000 -0.064437 -0.178596 -0.217828 0.317236 -0.646193 1.695322 -0.226849 2.877920 -1.923417 0.000000 0.000000 0.000000 0.330692 0.432038 -0.164868 0.123175 0.142705 1.002452 0.015235 0.032853 0.136747 0.000000 0.000000 0.000000 0.113720 0.617144 -0.365584 0.091219 -0.870927 -0.153383 0.115853 1.076531 0.282969 0.000000 0.000000 0.000000 0.562333 0.723586 -0.117964 0.556961 0.397952 0.507309 0.581612 -0.034841 0.263230 0.000000 0.000000 0.000000 
-435.831482 900.753235 1140.780029 7.409691 -0.366743 0.254547 -0.198267 0.480206 -0.856946 -0.140234 -0.104410 0.199093 -0.158668 0.092952 -0.114230 -0.178994 1.439167 0.935459 0.000000 0.000000 0.000000 -0.064224 -0.170641 -0.211994 0.317672 -0.640191 1.710630 -0.226851 2.878903 -1.918378 0.000000 0.000000 0.000000 0.326272 0.438536 -0.171907 0.124502 0.147456 1.008494 0.013795 0.027649 0.126985 0.000000 0.000000 0.000000 0.116460 0.618196 -0.364123 0.093956 -0.870858 -0.153231 0.118548 1.079943 0.284921 0.000000 0.000000 0.000000 0.565508 0.721303 -0.118217 0.560055 0.409311 0.511432 0.584875 -0.041073 0.263102 0.000000 0.000000 0.000000 
-435.896912 900.765015 1140.774048 7.402267 -0.373418 0.252041 -0.194184 0.485877 -0.856564 -0.136133 -0.105625 0.200464 -0.154723 0.094381 -0.115657 -0.180582 1.441275 0.941432 0.000000 0.000000 0.000000 -0.063896 -0.163176 -0.205032 0.317842 -0.633746 1.722827 -0.226649 2.877629 -1.912903 0.000000 0.000000 0.000000 0.325510 0.445890 -0.177628 0.125365 0.153410 1.010677 0.013605 0.027619 0.124681 0.000000 0.000000 0.000000 0.118498 0.620841 -0.362859 0.095980 -0.869900 -0.153108 0.120497 1.081350 0.286106 0.000000 0.000000 0.000000 0.568271 0.721664 -0.118119 0.562769 0.418423 0.514461 0.587670 -0.046022 0.263096 0.000000 0.000000 0.000000 
-435.962646 900.779785 1140.766968 7.395386 -0.381809 0.249734 -0.193428 0.492135 -0.853603 -0.135647 -0.106205 0.199478 -0.154101 0.095367 -0.114785 -0.181501 1.444163 0.945197 0.000000 0.000000 0.000000 -0.062146 -0.158064 -0.196630 0.317387 -0.627371 1.727365 -0.226059 2.872287 -1.905756 0.000000 0.000000 0.000000 0.333863 0.453745 -0.182434 0.125150 0.159848 1.005058 0.015626 0.036771 0.135550 0.000000 0.000000 0.000000 0.120139 0.625568 -0.362273 0.097573 -0.868815 -0.152777 0.122021 1.081055 0.286733 0.000000 0.000000 0.000000 0.571052 0.726100 -0.116817 0.565578 0.422863 0.514075 0.590168 -0.048713 0.263552 0.000000 0.000000 0.000000 
-436.025665 900.797791 1140.760010 7.389532 -0.391899 0.247762 -0.195296 0.498902 -0.849156 -0.137998 -0.109336 0.196612 -0.156073 0.098793 -0.112825 -0.182018 1.447362 0.947607 0.000000 0.000000 0.000000 -0.058276 -0.153977 -0.187614 0.316637 -0.620671 1.728477 -0.225280 2.864983 -1.897928 0.000000 0.000000 0.000000 0.347817 0.462501 -0.186713 0.124510 0.166896 0.996102 0.018892 0.051528 0.153186 0.000000 0.000000 0.000000 0.121424 0.632206 -0.362399 0.098784 -0.866947 -0.152250 0.123141 1.078822 0.286762 0.000000 0.000000 0.000000 0.573596 0.733531 -0.115321 0.568184 0.425008 0.512291 0.592318 -0.049807 0.264270 0.000000 0.000000 0.000000 
-436.090973 900.818604 1140.754028 7.386588 -0.401483 0.245487 -0.197844 0.503120 -0.844870 -0.140923 -0.109873 0.194957 -0.158784 0.099495 -0.111369 -0.182038 1.451911 0.948550 0.000000 0.000000 0.000000 -0.059969 -0.148850 -0.178445 0.315998 -0.614048 1.728920 -0.224434 2.856164 -1.892576 0.000000 0.000000 0.000000 0.357137 0.472603 -0.189973 0.124237 0.176300 0.987782 0.021270 0.062407 0.165846 0.000000 0.000000 0.000000 0.121872 0.636685 -0.362339 0.099230 -0.861682 -0.151334 0.123441 1.076382 0.286376 0.000000 0.000000 0.000000 0.575127 0.738999 -0.114857 0.569727 0.429254 0.512939 0.593766 -0.051316 0.264549 0.000000 0.000000 0.000000 
-436.158936 900.846191 1140.748047 7.387133 -0.411073 0.242416 -0.201834 0.505025 -0.838123 -0.145452 -0.110387 0.192884 -0.163102 0.100844 -0.110494 -0.180480 1.456838 0.944024 0.000000 0.000000 0.000000 -0.066163 -0.142530 -0.171046 0.315790 -0.607999 1.730845 -0.223474 2.844265 -1.892124 0.000000 0.000000 0.000000 0.362341 0.484215 -0.191940 0.124629 0.187924 0.981557 0.021968 0.066813 0.167724 0.000000 0.000000 0.000000 0.121596 0.638818 -0.361831 0.099040 -0.851426 -0.149554 0.123029 1.073322 0.285534 0.000000 0.000000 0.000000 0.575111 0.741828 -0.116484 0.569617 0.438267 0.518917 0.594329 -0.055749 0.263635 0.000000 0.000000 0.000000 
